# xmcd
#
# Track frame offsets:
#	150
#	16068
#	28649
#	43762
#	59259
#	79117
#	94077
#	110953
#	126767
#	141433
#	157600
#
# Disc length: 2342 seconds
#
# Revision: 0
# Processed by: cddbd v1.4PL0 Copyright (c) Steve Scherf et al.
# Submitted via: dBpowerAMP V4.0
#
DISCID=8a09240b
DTITLE=Gibson Miller Band  - Where There's Somoke...
DYEAR=1900
DGENRE=Country
TTITLE0=High Rollin'
TTITLE1=Where There There's Smoke
TTITLE2=Your Daddy Hates Me
TTITLE3=Small Price
TTITLE4=Texas Tattoo
TTITLE5=She's Gettin' A Rock
TTITLE6=Big Heart
TTITLE7=An Offer Her Heart Can't Refuse
TTITLE8=Thank You Virginia
TTITLE9=Stone Cold Country
TTITLE10=Southern Man
EXTD=
EXTT0=
EXTT1=
EXTT2=
EXTT3=
EXTT4=
EXTT5=
EXTT6=
EXTT7=
EXTT8=
EXTT9=
EXTT10=
PLAYORDER=
